<svg xmlns="http://www.w3.org/2000/svg" xmlns:xlink="http://www.w3.org/1999/xlink" width="500" zoomAndPan="magnify" viewBox="0 0 375 374.999991" height="500" preserveAspectRatio="xMidYMid meet" version="1.0"><defs><clipPath id="1e23073c8f"><path d="M 87 72.023438 L 289 72.023438 L 289 93 L 87 93 Z M 87 72.023438 " clip-rule="nonzero"/></clipPath><clipPath id="532f0b4337"><path d="M 64.609375 94 L 137 94 L 137 183 L 64.609375 183 Z M 64.609375 94 " clip-rule="nonzero"/></clipPath><clipPath id="c66fa9d8df"><path d="M 238 94 L 310.609375 94 L 310.609375 183 L 238 183 Z M 238 94 " clip-rule="nonzero"/></clipPath><clipPath id="e78a9e0aa9"><path d="M 64.609375 169 L 310.609375 169 L 310.609375 303 L 64.609375 303 Z M 64.609375 169 " clip-rule="nonzero"/></clipPath></defs><g clip-path="url(#1e23073c8f)"><path fill="#060606" d="M 97.636719 92.773438 C 92.832031 92.773438 88.464844 89.4375 87.421875 84.820312 C 86.113281 79.792969 89.082031 74.347656 94.0625 72.660156 C 94.109375 72.640625 94.160156 72.628906 94.207031 72.617188 C 96.324219 72.023438 98.449219 72.050781 100.320312 72.070312 C 100.921875 72.078125 101.519531 72.085938 102.113281 72.070312 C 128.648438 72.097656 155.121094 72.089844 181.597656 72.085938 C 213.117188 72.078125 245.707031 72.066406 277.761719 72.125 C 280.625 72.039062 283.417969 73.28125 285.433594 75.546875 C 287.476562 77.839844 288.40625 80.792969 287.988281 83.664062 C 287.722656 86.25 286.410156 88.621094 284.292969 90.347656 C 282.144531 92.101562 279.394531 92.96875 276.71875 92.726562 C 251.261719 92.730469 225.808594 92.730469 200.351562 92.730469 C 166.390625 92.726562 132.429688 92.726562 98.46875 92.738281 C 98.191406 92.757812 97.914062 92.773438 97.636719 92.773438 Z M 95.800781 78.015625 C 93.671875 78.777344 92.308594 81.289062 92.878906 83.429688 C 92.890625 83.46875 92.902344 83.507812 92.914062 83.550781 C 93.382812 85.707031 95.75 87.34375 98.082031 87.121094 C 98.167969 87.113281 98.257812 87.105469 98.34375 87.105469 C 132.347656 87.097656 166.351562 87.101562 200.351562 87.101562 C 225.851562 87.101562 251.355469 87.101562 276.855469 87.097656 C 276.953125 87.097656 277.050781 87.101562 277.152344 87.113281 C 278.386719 87.246094 279.691406 86.835938 280.730469 85.988281 C 281.695312 85.199219 282.28125 84.160156 282.386719 83.050781 C 282.390625 82.996094 282.398438 82.945312 282.40625 82.890625 C 282.59375 81.679688 282.152344 80.335938 281.226562 79.296875 C 280.316406 78.273438 279.097656 77.703125 277.90625 77.753906 C 277.871094 77.753906 277.84375 77.757812 277.796875 77.757812 C 245.730469 77.703125 213.125 77.707031 181.59375 77.71875 C 155.117188 77.726562 128.644531 77.734375 102.171875 77.703125 C 101.582031 77.714844 100.914062 77.707031 100.25 77.703125 C 98.640625 77.675781 97.125 77.660156 95.800781 78.015625 Z M 95.800781 78.015625 " fill-opacity="1" fill-rule="nonzero"/></g><g clip-path="url(#532f0b4337)"><path fill="#060606" d="M 87.515625 182.761719 C 85.734375 182.761719 83.957031 182.636719 82.195312 182.375 C 74.199219 180.917969 67.550781 174.730469 64.753906 166.203125 C 64.660156 165.921875 64.609375 165.625 64.609375 165.328125 L 64.609375 159.867188 C 64.609375 159.453125 64.703125 159.039062 64.878906 158.667969 C 69.777344 148.28125 74.496094 137.570312 79.0625 127.21875 C 83.558594 117.027344 88.207031 106.484375 93.035156 96.21875 C 93.5 95.234375 94.492188 94.601562 95.582031 94.601562 C 104.125 94.59375 112.671875 94.597656 121.21875 94.597656 L 134.039062 94.601562 C 134.890625 94.601562 135.695312 94.988281 136.226562 95.644531 C 136.761719 96.300781 136.96875 97.167969 136.792969 98 C 134.335938 109.566406 131.703125 121.296875 129.160156 132.640625 C 126.910156 142.644531 124.589844 152.988281 122.398438 163.175781 C 122.382812 163.257812 122.363281 163.332031 122.335938 163.410156 C 122.253906 163.667969 122.195312 163.945312 122.132812 164.21875 C 121.824219 165.542969 121.363281 167.53125 119.484375 168.820312 C 117.773438 170.125 116.003906 171.367188 114.289062 172.566406 C 113.105469 173.394531 111.925781 174.222656 110.761719 175.074219 C 103.914062 180.074219 95.671875 182.761719 87.515625 182.761719 Z M 87.515625 182.761719 " fill-opacity="1" fill-rule="nonzero"/></g><path fill="#060606" d="M 154.164062 182.863281 C 149.84375 182.863281 145.539062 182.089844 141.574219 180.53125 C 137.21875 178.828125 134.101562 175.773438 131.085938 172.820312 C 129.160156 170.925781 127.335938 169.144531 125.273438 167.78125 C 124.3125 167.148438 123.835938 166 124.0625 164.871094 C 126.683594 151.9375 129.640625 138.855469 132.496094 126.207031 C 134.664062 116.621094 136.902344 106.710938 138.976562 96.949219 C 139.25 95.667969 140.367188 94.742188 141.679688 94.71875 C 151.480469 94.542969 161.441406 94.574219 171.074219 94.609375 C 175.324219 94.625 179.578125 94.636719 183.824219 94.632812 C 183.824219 94.632812 183.824219 94.632812 183.828125 94.632812 C 184.578125 94.632812 185.292969 94.929688 185.820312 95.460938 C 186.351562 95.988281 186.644531 96.707031 186.644531 97.453125 C 186.621094 105.507812 186.652344 113.703125 186.679688 121.628906 C 186.734375 136.058594 186.785156 150.976562 186.523438 165.660156 C 186.507812 166.707031 185.90625 167.660156 184.96875 168.128906 C 182.527344 169.347656 180.425781 171.222656 178.199219 173.199219 C 175.664062 175.453125 173.042969 177.789062 169.691406 179.351562 C 164.871094 181.683594 159.5 182.863281 154.164062 182.863281 Z M 154.164062 182.863281 " fill-opacity="1" fill-rule="nonzero"/><path fill="#060606" d="M 221.148438 182.859375 C 216.375 182.859375 211.484375 181.910156 206.894531 180.003906 C 202.980469 178.457031 199.988281 175.804688 197.09375 173.238281 C 194.84375 171.242188 192.71875 169.355469 190.265625 168.082031 C 189.347656 167.605469 188.765625 166.667969 188.746094 165.632812 C 188.480469 149.925781 188.511719 133.957031 188.546875 118.515625 C 188.5625 111.496094 188.582031 104.472656 188.566406 97.453125 C 188.566406 96.707031 188.863281 95.988281 189.390625 95.460938 C 189.914062 94.933594 190.632812 94.632812 191.382812 94.632812 C 191.382812 94.632812 191.386719 94.632812 191.386719 94.632812 C 195.800781 94.640625 200.214844 94.625 204.628906 94.609375 C 214.097656 94.578125 223.882812 94.542969 233.523438 94.730469 C 234.835938 94.753906 235.953125 95.679688 236.222656 96.957031 C 238.355469 106.980469 240.640625 117.160156 242.847656 126.996094 C 245.628906 139.386719 248.503906 152.199219 251.105469 164.855469 C 251.339844 165.988281 250.855469 167.148438 249.886719 167.777344 C 247.855469 169.105469 246.082031 170.871094 244.203125 172.738281 C 241.523438 175.40625 238.75 178.164062 234.953125 179.890625 C 230.777344 181.867188 226.023438 182.859375 221.148438 182.859375 Z M 221.148438 182.859375 " fill-opacity="1" fill-rule="nonzero"/><g clip-path="url(#c66fa9d8df)"><path fill="#060606" d="M 287.929688 182.792969 C 285.492188 182.792969 282.882812 182.515625 280.105469 181.953125 C 270.230469 180.226562 262.148438 173.742188 255.019531 168.019531 L 254.65625 167.730469 C 254.171875 167.335938 253.828125 166.796875 253.683594 166.191406 C 250.371094 152.382812 247.265625 138.289062 244.261719 124.65625 C 242.34375 115.953125 240.359375 106.957031 238.34375 98.128906 C 238.152344 97.300781 238.351562 96.429688 238.871094 95.761719 C 239.398438 95.097656 240.199219 94.699219 241.046875 94.6875 C 250.277344 94.550781 259.652344 94.578125 268.722656 94.601562 C 272.351562 94.613281 275.976562 94.621094 279.605469 94.621094 C 280.703125 94.621094 281.695312 95.25 282.15625 96.242188 C 286.847656 106.277344 291.386719 116.570312 295.777344 126.519531 C 300.460938 137.125 305.296875 148.097656 310.316406 158.742188 C 310.492188 159.113281 310.585938 159.523438 310.585938 159.941406 L 310.585938 165.410156 C 310.585938 165.773438 310.515625 166.132812 310.375 166.46875 C 308.601562 170.84375 305.875 176.253906 300.5625 179.351562 C 297.105469 181.644531 292.871094 182.792969 287.929688 182.792969 Z M 287.929688 182.792969 " fill-opacity="1" fill-rule="nonzero"/></g><g clip-path="url(#e78a9e0aa9)"><path fill="#060606" d="M 72.359375 302.941406 C 70.003906 302.941406 67.691406 302.039062 65.621094 300.308594 C 64.980469 299.777344 64.613281 298.984375 64.613281 298.152344 L 64.613281 294.398438 C 64.613281 293.523438 65.019531 292.703125 65.714844 292.167969 C 69.433594 289.316406 73.738281 289.546875 77.539062 289.746094 C 78.246094 289.785156 78.941406 289.820312 79.609375 289.839844 C 79.652344 273.777344 79.644531 257.5 79.636719 241.730469 C 79.625 223.921875 79.613281 205.503906 79.683594 187.390625 C 79.6875 186.613281 80.011719 185.871094 80.578125 185.34375 C 81.148438 184.8125 81.90625 184.539062 82.683594 184.589844 C 92.445312 185.21875 101.816406 183.054688 109.074219 178.488281 C 109.097656 178.472656 109.121094 178.457031 109.140625 178.445312 C 110.8125 177.457031 112.386719 176.269531 114.046875 175.015625 C 116.636719 173.054688 119.320312 171.035156 122.550781 169.679688 C 123.53125 169.269531 124.652344 169.441406 125.464844 170.125 C 126.988281 171.417969 128.402344 172.820312 129.769531 174.171875 C 132.21875 176.597656 134.527344 178.886719 137.3125 180.449219 C 144.085938 184.550781 153.113281 185.71875 162.824219 183.78125 C 168.796875 182.59375 174.714844 179.25 179.933594 174.121094 C 179.988281 174.066406 180.046875 174.011719 180.109375 173.964844 C 180.398438 173.722656 180.703125 173.449219 181.019531 173.164062 C 182.980469 171.394531 187.0625 167.710938 191.398438 170.933594 C 193.042969 172.175781 194.566406 173.511719 196.046875 174.804688 C 199.066406 177.441406 201.914062 179.929688 205.34375 181.386719 C 215.628906 185.960938 227.652344 185.84375 236.765625 181.09375 C 240.128906 179.414062 242.816406 176.769531 245.667969 173.972656 C 246.964844 172.695312 248.300781 171.378906 249.722656 170.144531 C 250.53125 169.441406 251.667969 169.257812 252.65625 169.671875 C 255.691406 170.9375 258.203125 172.835938 260.636719 174.667969 C 261.378906 175.226562 262.121094 175.789062 262.878906 176.328125 C 270.957031 182.445312 281.460938 185.359375 292.519531 184.59375 C 293.296875 184.542969 294.058594 184.808594 294.632812 185.339844 C 295.203125 185.867188 295.527344 186.609375 295.53125 187.390625 C 295.609375 205.160156 295.59375 223.226562 295.582031 240.695312 C 295.570312 256.808594 295.554688 273.4375 295.617188 289.84375 C 296.3125 289.828125 297.035156 289.789062 297.78125 289.746094 C 301.625 289.527344 305.976562 289.28125 309.613281 292.375 C 310.242188 292.914062 310.601562 293.695312 310.601562 294.519531 L 310.601562 298.273438 C 310.601562 299.28125 310.0625 300.214844 309.183594 300.714844 C 308.957031 300.847656 308.730469 300.980469 308.503906 301.117188 C 307.175781 301.925781 305.371094 303.027344 303.054688 302.886719 L 298.664062 302.894531 C 289.347656 302.910156 279.710938 302.929688 270.238281 302.859375 C 268.710938 302.847656 267.472656 301.621094 267.441406 300.097656 C 267.363281 296.003906 267.390625 291.855469 267.417969 287.84375 C 267.449219 283.261719 267.476562 278.519531 267.351562 273.890625 C 267.347656 273.785156 267.351562 273.679688 267.363281 273.574219 C 267.375 273.398438 267.347656 273.324219 267.234375 273.214844 C 267 272.988281 266.476562 272.792969 265.9375 272.859375 C 265.820312 272.875 265.695312 272.863281 265.589844 272.882812 C 255.308594 272.863281 245.023438 272.867188 234.738281 272.871094 C 223.390625 272.875 212.035156 272.878906 200.6875 272.851562 C 200.648438 272.851562 200.609375 272.851562 200.566406 272.847656 C 199.097656 272.78125 198.347656 273.03125 198.117188 273.171875 C 197.839844 278.167969 197.894531 283.269531 197.9375 288.199219 C 197.976562 292.101562 198.015625 296.132812 197.898438 300.125 C 197.855469 301.625 196.640625 302.828125 195.144531 302.859375 C 190.757812 302.949219 186.113281 302.949219 180.097656 302.859375 C 178.5625 302.835938 177.328125 301.585938 177.324219 300.050781 C 177.257812 276.554688 177.273438 252.667969 177.285156 229.574219 C 177.292969 219.898438 177.296875 210.230469 177.296875 200.554688 L 177.289062 200.355469 C 177.273438 199.730469 177.246094 198.472656 177.035156 198.03125 C 175.5 197.726562 173.824219 197.753906 172.058594 197.785156 C 171.277344 197.796875 170.496094 197.8125 169.71875 197.796875 C 152.191406 197.839844 134.316406 197.824219 117.03125 197.804688 L 110.558594 197.796875 L 110.441406 197.800781 C 109.796875 197.816406 108.488281 197.835938 108.046875 198.066406 C 107.699219 199.953125 107.738281 201.96875 107.785156 204.09375 C 107.804688 205.125 107.828125 206.191406 107.804688 207.261719 C 107.804688 216.226562 107.808594 225.253906 107.8125 234.277344 C 107.828125 255.835938 107.839844 278.125 107.773438 300.050781 C 107.769531 301.589844 106.527344 302.84375 104.984375 302.859375 C 98.960938 302.914062 92.84375 302.90625 86.933594 302.902344 C 82.339844 302.894531 77.742188 302.890625 73.144531 302.914062 C 72.875 302.929688 72.617188 302.941406 72.359375 302.941406 Z M 70.246094 296.703125 C 70.949219 297.097656 71.796875 297.386719 72.71875 297.292969 C 72.808594 297.289062 72.894531 297.28125 72.980469 297.28125 C 77.628906 297.253906 82.277344 297.261719 86.925781 297.265625 C 91.914062 297.273438 97.046875 297.28125 102.136719 297.246094 C 102.191406 276.222656 102.183594 254.914062 102.167969 234.273438 C 102.160156 225.246094 102.15625 216.21875 102.15625 207.191406 C 102.179688 206.175781 102.160156 205.214844 102.140625 204.199219 C 102.089844 201.757812 102.039062 199.226562 102.570312 196.640625 C 102.589844 196.550781 102.613281 196.464844 102.636719 196.378906 C 103.902344 192.289062 108.242188 192.207031 110.320312 192.167969 L 110.492188 192.164062 L 117.019531 192.171875 C 134.300781 192.1875 152.171875 192.207031 169.742188 192.164062 C 170.511719 192.175781 171.226562 192.164062 171.945312 192.152344 C 174.058594 192.117188 176.242188 192.078125 178.507812 192.589844 C 178.582031 192.609375 178.652344 192.625 178.722656 192.648438 C 182.761719 193.902344 182.855469 198.171875 182.902344 200.222656 L 182.910156 200.480469 C 182.910156 210.226562 182.90625 219.898438 182.898438 229.574219 C 182.886719 251.757812 182.875 274.671875 182.929688 297.261719 C 186.441406 297.300781 189.472656 297.304688 192.308594 297.269531 C 192.347656 294.253906 192.316406 291.214844 192.285156 288.253906 C 192.238281 283.210938 192.183594 277.996094 192.46875 272.835938 C 192.5625 271.417969 193.429688 266.921875 200.734375 267.222656 C 212.058594 267.246094 223.390625 267.242188 234.714844 267.238281 C 244.949219 267.234375 255.1875 267.230469 265.421875 267.25 C 267.542969 267.046875 269.65625 267.75 271.117188 269.15625 C 272.414062 270.402344 273.0625 272.070312 272.960938 273.867188 C 273.089844 278.550781 273.054688 283.292969 273.027344 287.878906 C 273.007812 290.953125 272.984375 294.109375 273.015625 297.246094 C 281.570312 297.292969 290.230469 297.28125 298.628906 297.261719 L 303.117188 297.253906 C 303.195312 297.25 303.269531 297.257812 303.347656 297.261719 C 303.765625 297.300781 304.328125 297.027344 304.941406 296.667969 L 304.941406 296 C 303.121094 295.074219 300.75 295.210938 298.074219 295.359375 C 296.230469 295.464844 294.324219 295.570312 292.417969 295.324219 C 291.019531 295.140625 289.976562 293.953125 289.96875 292.546875 C 289.898438 275.257812 289.910156 257.683594 289.925781 240.683594 C 289.9375 224.179688 289.949219 207.140625 289.886719 190.332031 C 278.574219 190.5 267.882812 187.1875 259.523438 180.859375 C 258.789062 180.335938 258.003906 179.746094 257.21875 179.152344 C 255.476562 177.835938 253.808594 176.578125 252.039062 175.621094 C 251.230469 176.375 250.429688 177.167969 249.597656 177.980469 C 246.5625 180.964844 243.425781 184.050781 239.3125 186.105469 C 228.75 191.605469 214.855469 191.78125 203.078125 186.542969 C 198.867188 184.757812 195.539062 181.851562 192.320312 179.039062 C 190.851562 177.753906 189.464844 176.542969 188 175.4375 C 187.535156 175.089844 186.773438 175.53125 184.773438 177.339844 C 184.433594 177.648438 184.101562 177.949219 183.78125 178.214844 C 177.796875 184.066406 170.925781 187.902344 163.90625 189.304688 C 152.8125 191.515625 142.355469 190.097656 134.453125 185.3125 C 131.085938 183.417969 128.390625 180.753906 125.789062 178.171875 C 124.890625 177.285156 124.027344 176.429688 123.148438 175.617188 C 121.183594 176.667969 119.347656 178.054688 117.425781 179.507812 C 115.71875 180.796875 113.957031 182.125 112.023438 183.269531 C 104.417969 188.050781 95.238281 190.453125 85.292969 190.324219 C 85.234375 207.484375 85.246094 224.878906 85.253906 241.726562 C 85.261719 258.386719 85.269531 275.613281 85.21875 292.558594 C 85.214844 293.988281 84.140625 295.1875 82.71875 295.347656 C 80.867188 295.558594 79.019531 295.460938 77.226562 295.367188 C 74.535156 295.226562 72.148438 295.097656 70.234375 295.972656 L 70.234375 296.703125 Z M 273.714844 265.402344 C 273.453125 265.402344 273.191406 265.390625 272.929688 265.359375 C 262.230469 265.359375 251.535156 265.359375 240.832031 265.359375 C 224.683594 265.363281 208.539062 265.367188 192.398438 265.351562 C 190.296875 265.566406 188.179688 264.871094 186.703125 263.464844 C 185.382812 262.207031 184.722656 260.535156 184.832031 258.730469 C 184.769531 248.296875 184.777344 237.699219 184.789062 227.449219 C 184.796875 218.640625 184.808594 209.535156 184.769531 200.582031 C 184.722656 199.054688 184.582031 194.199219 188.8125 192.667969 C 188.917969 192.628906 189.023438 192.597656 189.136719 192.574219 C 191.304688 192.070312 193.390625 192.113281 195.410156 192.160156 C 196.261719 192.175781 197.0625 192.195312 197.84375 192.175781 L 208.757812 192.175781 C 229.886719 192.183594 251.011719 192.195312 272.140625 192.164062 C 272.191406 192.167969 272.246094 192.164062 272.300781 192.167969 C 272.535156 192.179688 272.78125 192.183594 273.027344 192.1875 C 274.5625 192.21875 276.875 192.265625 278.644531 194.054688 C 280.445312 195.808594 280.5 198.113281 280.535156 199.644531 C 280.542969 199.898438 280.546875 200.152344 280.558594 200.398438 C 280.5625 200.460938 280.566406 200.519531 280.5625 200.582031 C 280.523438 209.535156 280.535156 218.644531 280.542969 227.449219 C 280.554688 237.703125 280.5625 248.300781 280.5 258.734375 C 280.605469 260.550781 279.925781 262.242188 278.582031 263.507812 C 277.285156 264.730469 275.519531 265.402344 273.714844 265.402344 Z M 260.757812 259.730469 C 264.875 259.730469 268.988281 259.730469 273.101562 259.734375 C 273.234375 259.734375 273.363281 259.746094 273.496094 259.761719 C 273.925781 259.820312 274.441406 259.671875 274.71875 259.410156 C 274.875 259.261719 274.882812 259.160156 274.871094 259.046875 C 274.863281 258.96875 274.863281 258.886719 274.863281 258.804688 C 274.933594 248.359375 274.921875 237.734375 274.910156 227.457031 C 274.902344 218.671875 274.894531 209.585938 274.933594 200.644531 C 274.917969 200.363281 274.910156 200.066406 274.902344 199.773438 C 274.894531 199.289062 274.871094 198.285156 274.71875 198.09375 C 274.691406 198.070312 274.664062 198.042969 274.640625 198.011719 C 274.476562 197.847656 273.421875 197.828125 272.914062 197.816406 C 272.628906 197.808594 272.351562 197.804688 272.074219 197.792969 C 250.964844 197.824219 229.859375 197.8125 208.753906 197.804688 L 197.929688 197.800781 C 197.082031 197.828125 196.167969 197.808594 195.28125 197.789062 C 193.640625 197.75 192.085938 197.71875 190.675781 198 C 190.59375 198.109375 190.347656 198.605469 190.398438 200.484375 C 190.4375 209.527344 190.429688 218.640625 190.421875 227.457031 C 190.410156 237.730469 190.398438 248.359375 190.464844 258.804688 C 190.464844 258.886719 190.464844 258.972656 190.457031 259.050781 C 190.445312 259.1875 190.460938 259.269531 190.589844 259.386719 C 190.835938 259.617188 191.351562 259.816406 191.871094 259.746094 C 191.996094 259.726562 192.113281 259.683594 192.242188 259.71875 C 208.433594 259.738281 224.636719 259.734375 240.832031 259.730469 C 247.476562 259.734375 254.117188 259.730469 260.757812 259.730469 Z M 260.757812 259.730469 " fill-opacity="1" fill-rule="nonzero"/></g><path fill="#060606" d="M 144.796875 302.898438 C 134.90625 302.898438 124.265625 302.890625 112.519531 302.871094 C 110.96875 302.871094 109.710938 301.613281 109.707031 300.0625 C 109.652344 270.230469 109.652344 238.324219 109.707031 202.527344 C 109.710938 200.976562 110.964844 199.71875 112.515625 199.714844 C 132.445312 199.660156 152.652344 199.660156 172.570312 199.714844 C 174.121094 199.71875 175.378906 200.976562 175.378906 202.527344 C 175.410156 240.550781 175.410156 271.546875 175.378906 300.0625 C 175.375 301.613281 174.121094 302.871094 172.566406 302.871094 C 163.828125 302.890625 154.691406 302.898438 144.796875 302.898438 Z M 115.335938 297.246094 C 136.308594 297.273438 153.75 297.273438 169.746094 297.246094 C 169.773438 270.210938 169.773438 240.84375 169.746094 205.332031 C 151.683594 205.285156 133.40625 205.285156 115.335938 205.332031 C 115.289062 238.878906 115.289062 269.011719 115.335938 297.246094 Z M 115.335938 297.246094 " fill-opacity="1" fill-rule="nonzero"/><path fill="#060606" d="M 234.695312 257.867188 C 221.210938 257.867188 207.945312 257.851562 195.140625 257.835938 C 193.589844 257.835938 192.332031 256.582031 192.328125 255.03125 C 192.273438 237.082031 192.292969 219.246094 192.316406 202.515625 C 192.320312 200.964844 193.578125 199.707031 195.128906 199.703125 C 224.5 199.671875 248.351562 199.671875 270.199219 199.703125 C 271.75 199.707031 273.007812 200.960938 273.011719 202.511719 C 273.054688 219.929688 273.054688 237.597656 273.011719 255.019531 C 273.007812 256.570312 271.75 257.824219 270.203125 257.828125 C 258.292969 257.855469 246.410156 257.867188 234.695312 257.867188 Z M 234.695312 257.867188 " fill-opacity="1" fill-rule="nonzero"/><path fill="#060606" d="M 231.3125 302.902344 C 221.355469 302.902344 211.84375 302.886719 202.644531 302.863281 C 201.101562 302.859375 199.847656 301.613281 199.835938 300.070312 C 199.777344 292.601562 199.777344 285.03125 199.835938 277.566406 C 199.847656 276.023438 201.101562 274.777344 202.644531 274.773438 C 224.648438 274.71875 244.289062 274.71875 262.6875 274.773438 C 264.226562 274.777344 265.480469 276.019531 265.496094 277.558594 C 265.570312 285.070312 265.535156 292.691406 265.496094 300.0625 C 265.488281 301.609375 264.234375 302.859375 262.6875 302.863281 C 251.6875 302.890625 241.273438 302.902344 231.3125 302.902344 Z M 205.449219 297.242188 C 222.246094 297.285156 240.109375 297.285156 259.878906 297.242188 C 259.90625 291.683594 259.925781 286.015625 259.890625 280.394531 C 243.089844 280.351562 225.226562 280.351562 205.453125 280.394531 C 205.417969 285.996094 205.417969 291.640625 205.449219 297.242188 Z M 205.449219 297.242188 " fill-opacity="1" fill-rule="nonzero"/><path fill="#2bae66" d="M 310.335938 0.0625 C 245.347656 0.0625 246.023438 107.3125 246.472656 151.925781 C 246.695312 171.53125 263.335938 176.9375 270.308594 164.996094 C 282.902344 143.589844 294.59375 158.460938 298.867188 163.417969 C 301.113281 165.898438 303.8125 171.078125 310.109375 171.078125 C 316.40625 171.078125 319.328125 165.898438 321.578125 163.417969 C 325.851562 158.460938 337.542969 143.816406 350.136719 164.996094 C 357.109375 176.9375 373.746094 171.53125 373.972656 151.925781 C 374.648438 107.3125 375.097656 0.0625 310.335938 0.0625 Z M 310.335938 0.0625 " fill-opacity="1" fill-rule="nonzero"/><path fill="#000000" d="M 299.765625 56.84375 C 299.765625 57.375 299.738281 57.902344 299.6875 58.425781 C 299.636719 58.949219 299.558594 59.453125 299.457031 59.945312 C 299.355469 60.4375 299.230469 60.90625 299.082031 61.347656 C 298.9375 61.792969 298.769531 62.203125 298.582031 62.578125 C 298.390625 62.953125 298.1875 63.292969 297.96875 63.585938 C 297.746094 63.882812 297.511719 64.132812 297.265625 64.335938 C 297.023438 64.539062 296.769531 64.695312 296.507812 64.796875 C 296.246094 64.902344 295.984375 64.953125 295.71875 64.953125 C 295.453125 64.953125 295.1875 64.902344 294.929688 64.796875 C 294.667969 64.695312 294.414062 64.539062 294.167969 64.335938 C 293.921875 64.132812 293.691406 63.882812 293.46875 63.585938 C 293.25 63.292969 293.042969 62.953125 292.855469 62.578125 C 292.667969 62.203125 292.5 61.792969 292.351562 61.347656 C 292.203125 60.90625 292.082031 60.4375 291.980469 59.945312 C 291.875 59.453125 291.800781 58.949219 291.75 58.425781 C 291.695312 57.902344 291.671875 57.375 291.671875 56.84375 C 291.671875 56.308594 291.695312 55.78125 291.75 55.261719 C 291.800781 54.738281 291.875 54.230469 291.980469 53.738281 C 292.082031 53.246094 292.203125 52.777344 292.351562 52.335938 C 292.5 51.894531 292.667969 51.484375 292.855469 51.105469 C 293.042969 50.730469 293.25 50.394531 293.46875 50.097656 C 293.691406 49.800781 293.921875 49.550781 294.167969 49.347656 C 294.414062 49.144531 294.667969 48.992188 294.929688 48.886719 C 295.1875 48.78125 295.453125 48.730469 295.71875 48.730469 C 295.984375 48.730469 296.246094 48.78125 296.507812 48.886719 C 296.769531 48.992188 297.023438 49.144531 297.265625 49.347656 C 297.511719 49.550781 297.746094 49.800781 297.96875 50.097656 C 298.1875 50.394531 298.390625 50.730469 298.582031 51.105469 C 298.769531 51.484375 298.9375 51.894531 299.082031 52.335938 C 299.230469 52.777344 299.355469 53.246094 299.457031 53.738281 C 299.558594 54.230469 299.636719 54.738281 299.6875 55.261719 C 299.738281 55.78125 299.765625 56.308594 299.765625 56.84375 Z M 299.765625 56.84375 " fill-opacity="1" fill-rule="nonzero"/><path fill="#000000" d="M 324.5 56.84375 C 324.5 57.375 324.476562 57.902344 324.421875 58.425781 C 324.371094 58.949219 324.296875 59.453125 324.195312 59.945312 C 324.089844 60.4375 323.96875 60.90625 323.820312 61.347656 C 323.671875 61.792969 323.503906 62.203125 323.316406 62.578125 C 323.128906 62.953125 322.921875 63.292969 322.703125 63.585938 C 322.480469 63.882812 322.25 64.132812 322.003906 64.335938 C 321.757812 64.539062 321.503906 64.695312 321.242188 64.796875 C 320.984375 64.902344 320.71875 64.953125 320.453125 64.953125 C 320.1875 64.953125 319.925781 64.902344 319.664062 64.796875 C 319.402344 64.695312 319.152344 64.539062 318.90625 64.335938 C 318.660156 64.132812 318.425781 63.882812 318.207031 63.585938 C 317.984375 63.292969 317.78125 62.953125 317.589844 62.578125 C 317.402344 62.203125 317.234375 61.792969 317.089844 61.347656 C 316.941406 60.90625 316.816406 60.4375 316.714844 59.945312 C 316.613281 59.453125 316.535156 58.949219 316.484375 58.425781 C 316.433594 57.902344 316.40625 57.375 316.40625 56.84375 C 316.40625 56.308594 316.433594 55.78125 316.484375 55.261719 C 316.535156 54.738281 316.613281 54.230469 316.714844 53.738281 C 316.816406 53.246094 316.941406 52.777344 317.089844 52.335938 C 317.234375 51.894531 317.402344 51.484375 317.589844 51.105469 C 317.78125 50.730469 317.984375 50.394531 318.203125 50.097656 C 318.425781 49.800781 318.660156 49.550781 318.90625 49.347656 C 319.152344 49.144531 319.402344 48.992188 319.664062 48.886719 C 319.925781 48.78125 320.1875 48.730469 320.453125 48.730469 C 320.71875 48.730469 320.984375 48.78125 321.242188 48.886719 C 321.503906 48.992188 321.757812 49.144531 322.003906 49.347656 C 322.25 49.550781 322.480469 49.800781 322.703125 50.097656 C 322.921875 50.394531 323.128906 50.730469 323.316406 51.105469 C 323.503906 51.484375 323.671875 51.894531 323.820312 52.335938 C 323.96875 52.777344 324.089844 53.246094 324.195312 53.738281 C 324.296875 54.230469 324.371094 54.738281 324.421875 55.261719 C 324.476562 55.78125 324.5 56.308594 324.5 56.84375 Z M 324.5 56.84375 " fill-opacity="1" fill-rule="nonzero"/></svg>