<svg xmlns="http://www.w3.org/2000/svg" xmlns:xlink="http://www.w3.org/1999/xlink" width="500" zoomAndPan="magnify" viewBox="0 0 375 374.999991" height="500" preserveAspectRatio="xMidYMid meet" version="1.0"><defs><clipPath id="392a378145"><path d="M 7.542969 2 L 367.542969 2 L 367.542969 373.050781 L 7.542969 373.050781 Z M 7.542969 2 " clip-rule="nonzero"/></clipPath></defs><path fill="#2bae66" d="M 327.210938 237.890625 C 327.210938 237.105469 326.902344 236.359375 326.347656 235.808594 L 145.316406 55.097656 C 144.164062 53.949219 142.304688 53.949219 141.152344 55.097656 C 138.171875 58.074219 134.214844 59.710938 129.992188 59.710938 C 125.773438 59.710938 121.8125 58.074219 118.832031 55.097656 C 117.679688 53.949219 115.820312 53.949219 114.667969 55.097656 L 46.234375 123.402344 C 45.679688 123.957031 45.371094 124.703125 45.371094 125.484375 C 45.371094 126.265625 45.679688 127.015625 46.234375 127.566406 C 51.695312 133.027344 52.410156 141.550781 47.921875 147.828125 C 47.085938 149 47.21875 150.605469 48.234375 151.625 L 197.539062 300.679688 C 197.539062 300.683594 197.539062 300.683594 197.539062 300.683594 L 229.652344 332.714844 C 230.671875 333.730469 232.269531 333.859375 233.429688 333.03125 C 239.746094 328.574219 248.289062 329.285156 253.75 334.71875 C 254.320312 335.289062 255.074219 335.574219 255.828125 335.574219 C 256.582031 335.574219 257.335938 335.285156 257.910156 334.714844 L 326.34375 266.414062 C 326.898438 265.859375 327.207031 265.113281 327.207031 264.328125 C 327.207031 263.550781 326.898438 262.800781 326.34375 262.25 C 320.199219 256.105469 320.199219 246.113281 326.34375 239.972656 C 326.902344 239.417969 327.210938 238.667969 327.210938 237.890625 Z M 237.617188 199.289062 C 237.617188 211.890625 232.703125 223.730469 223.789062 232.625 C 223.785156 232.628906 223.785156 232.628906 223.785156 232.628906 C 214.882812 241.539062 203.035156 246.449219 190.425781 246.449219 C 177.820312 246.449219 165.960938 241.539062 157.046875 232.628906 C 138.65625 214.253906 138.65625 184.328125 157.046875 165.929688 C 166.25 156.738281 178.339844 152.144531 190.425781 152.144531 C 202.511719 152.144531 214.59375 156.742188 223.785156 165.925781 C 232.703125 174.839844 237.617188 186.6875 237.617188 199.289062 Z M 237.617188 199.289062 " fill-opacity="1" fill-rule="nonzero"/><g clip-path="url(#392a378145)"><path fill="#2bae66" d="M 366.859375 55.550781 C 366.472656 54.871094 365.832031 54.371094 365.082031 54.164062 L 232.304688 17.683594 L 228.34375 4.214844 C 227.886719 2.65625 226.253906 1.757812 224.6875 2.21875 L 142.871094 26.191406 L 132.085938 15.414062 C 130.933594 14.261719 129.074219 14.261719 127.921875 15.414062 L 106.488281 36.832031 L 71.671875 47.023438 C 70.921875 47.242188 70.292969 47.75 69.914062 48.4375 C 69.539062 49.121094 69.457031 49.925781 69.671875 50.675781 L 74.867188 68.375 L 8.699219 134.4375 C 8.148438 134.996094 7.835938 135.742188 7.835938 136.527344 C 7.835938 137.308594 8.148438 138.058594 8.699219 138.609375 L 131.519531 261.214844 L 146.328125 311.613281 C 146.328125 311.617188 146.332031 311.621094 146.332031 311.625 L 157.792969 350.542969 C 158.171875 351.824219 159.34375 352.65625 160.617188 352.65625 C 160.894531 352.65625 161.171875 352.617188 161.449219 352.539062 L 209.019531 338.578125 L 242.699219 372.195312 C 243.273438 372.769531 244.027344 373.058594 244.78125 373.058594 C 245.535156 373.058594 246.289062 372.769531 246.863281 372.199219 L 366.089844 253.199219 C 366.644531 252.644531 366.953125 251.898438 366.953125 251.113281 C 366.953125 250.332031 366.644531 249.578125 366.089844 249.03125 L 325.5625 208.570312 L 367.140625 57.789062 C 367.347656 57.035156 367.25 56.230469 366.859375 55.550781 Z M 223.519531 8.695312 L 264.253906 147.355469 L 246.835938 129.964844 L 221.300781 43.132812 C 220.84375 41.574219 219.214844 40.683594 217.648438 41.136719 C 213.859375 42.242188 209.875 41.808594 206.410156 39.921875 C 202.945312 38.035156 200.429688 34.921875 199.328125 31.152344 C 199.109375 30.402344 198.601562 29.769531 197.914062 29.394531 C 197.226562 29.015625 196.414062 28.929688 195.671875 29.152344 L 157.140625 40.445312 L 147.621094 30.933594 Z M 76.15625 51.847656 L 97.753906 45.523438 L 79.617188 63.632812 Z M 162.609375 346.050781 L 151.984375 309.964844 C 151.984375 309.964844 151.984375 309.960938 151.984375 309.957031 L 140.207031 269.882812 L 204.265625 333.828125 Z M 244.78125 365.949219 L 14.953125 136.527344 L 110.03125 41.59375 C 110.054688 41.570312 110.085938 41.566406 110.113281 41.542969 L 130.007812 21.660156 L 154.203125 45.839844 C 154.230469 45.867188 154.265625 45.875 154.296875 45.902344 L 359.839844 251.109375 Z M 321.367188 201.660156 L 320.777344 203.789062 L 311.652344 194.679688 L 341.570312 86.199219 C 341.777344 85.445312 341.679688 84.640625 341.289062 83.960938 C 340.902344 83.28125 340.261719 82.78125 339.511719 82.578125 C 335.867188 81.574219 332.828125 79.214844 330.957031 75.925781 C 329.085938 72.640625 328.605469 68.832031 329.609375 65.207031 C 329.816406 64.453125 329.71875 63.648438 329.328125 62.96875 C 328.941406 62.289062 328.304688 61.789062 327.550781 61.582031 L 242.351562 38.148438 C 240.878906 37.746094 239.382812 38.558594 238.847656 39.964844 L 234.253906 24.320312 L 360.675781 59.058594 Z M 321.367188 201.660156 " fill-opacity="1" fill-rule="nonzero"/></g><path fill="#2bae66" d="M 209.59375 175.976562 L 204.417969 181.253906 C 202.355469 179.957031 199.984375 179.238281 197.5 179.238281 C 194.082031 179.238281 190.746094 180.617188 188.347656 183.015625 C 185.929688 185.433594 184.539062 188.78125 184.539062 192.195312 C 184.539062 195.609375 185.929688 198.957031 188.347656 201.375 C 189.671875 202.695312 190.433594 204.511719 190.433594 206.355469 C 190.433594 208.222656 189.6875 210.007812 188.335938 211.382812 C 185.703125 214.050781 180.957031 214.050781 178.328125 211.382812 C 176.996094 210.03125 176.261719 208.246094 176.261719 206.355469 C 176.261719 204.492188 177.011719 202.675781 178.316406 201.375 C 179.46875 200.226562 179.46875 198.363281 178.316406 197.210938 C 177.167969 196.058594 175.300781 196.0625 174.148438 197.207031 C 171.75 199.605469 170.371094 202.941406 170.371094 206.355469 C 170.371094 208.804688 171.074219 211.140625 172.335938 213.183594 L 167.074219 218.46875 C 165.925781 219.625 165.929688 221.484375 167.082031 222.636719 C 167.65625 223.207031 168.410156 223.492188 169.160156 223.492188 C 169.917969 223.492188 170.671875 223.199219 171.25 222.625 L 176.496094 217.367188 C 178.519531 218.632812 180.859375 219.339844 183.335938 219.339844 C 186.835938 219.339844 190.105469 217.984375 192.535156 215.515625 C 194.980469 213.03125 196.328125 209.78125 196.328125 206.359375 C 196.328125 202.964844 194.9375 199.628906 192.519531 197.214844 C 191.195312 195.890625 190.433594 194.0625 190.433594 192.199219 C 190.433594 190.335938 191.195312 188.507812 192.519531 187.183594 C 195.136719 184.554688 199.796875 184.503906 202.585938 187.246094 C 205.285156 190.007812 205.257812 194.476562 202.523438 197.214844 C 201.371094 198.363281 201.371094 200.226562 202.523438 201.375 C 203.675781 202.527344 205.535156 202.527344 206.6875 201.375 C 210.960938 197.105469 211.589844 190.535156 208.539062 185.476562 L 213.8125 180.097656 C 214.949219 178.933594 214.929688 177.070312 213.765625 175.933594 C 212.601562 174.796875 210.738281 174.8125 209.59375 175.976562 Z M 209.59375 175.976562 " fill-opacity="1" fill-rule="nonzero"/></svg>