<svg xmlns="http://www.w3.org/2000/svg" xmlns:xlink="http://www.w3.org/1999/xlink" width="1344" zoomAndPan="magnify" viewBox="0 0 1008 1295.99994" height="1728" preserveAspectRatio="xMidYMid meet" version="1.0"><defs><g/><clipPath id="id1"><path d="M 43.585938 0 L 964.585938 0 L 964.585938 1296 L 43.585938 1296 Z M 43.585938 0 " clip-rule="nonzero"/></clipPath><clipPath id="id2"><path d="M 78.371094 32.796875 L 929.621094 32.796875 L 929.621094 1263.546875 L 78.371094 1263.546875 Z M 78.371094 32.796875 " clip-rule="nonzero"/></clipPath><clipPath id="id3"><path d="M 727 667 L 739 667 L 739 701.339844 L 727 701.339844 Z M 727 667 " clip-rule="nonzero"/></clipPath><clipPath id="id4"><path d="M 790 642 L 800 642 L 800 701.339844 L 790 701.339844 Z M 790 642 " clip-rule="nonzero"/></clipPath><clipPath id="id5"><path d="M 770 677 L 781 677 L 781 701.339844 L 770 701.339844 Z M 770 677 " clip-rule="nonzero"/></clipPath><clipPath id="id6"><path d="M 750 609 L 762 609 L 762 701.339844 L 750 701.339844 Z M 750 609 " clip-rule="nonzero"/></clipPath></defs><g clip-path="url(#id1)"><path fill="#ffffff" d="M 43.585938 0.00390625 L 964.585938 0.00390625 L 964.585938 1295.996094 L 43.585938 1295.996094 L 43.585938 0.00390625 " fill-opacity="1" fill-rule="nonzero"/></g><g clip-path="url(#id2)"><path fill="#060606" d="M 78.371094 32.796875 L 78.371094 1263.542969 L 929.621094 1263.542969 L 929.621094 32.796875 L 78.371094 32.796875 M 918.90625 1252.828125 L 88.859375 1252.828125 L 88.859375 43.289062 L 918.90625 43.289062 L 918.90625 1252.828125 " fill-opacity="1" fill-rule="nonzero"/></g><path fill="#060606" d="M 380.988281 188.34375 C 382.0625 188.34375 383.136719 187.984375 384.027344 187.242188 C 388.777344 183.261719 393.765625 179.449219 398.847656 175.902344 C 400.992188 174.410156 401.511719 171.460938 400.023438 169.3125 C 398.53125 167.171875 395.582031 166.648438 393.429688 168.136719 C 388.121094 171.839844 382.910156 175.828125 377.945312 179.988281 C 375.941406 181.664062 375.675781 184.648438 377.355469 186.65625 C 378.289062 187.769531 379.632812 188.34375 380.988281 188.34375 Z M 380.988281 188.34375 " fill-opacity="1" fill-rule="nonzero"/><path fill="#060606" d="M 317.90625 322.140625 C 318.101562 322.140625 318.300781 322.125 318.5 322.101562 C 321.09375 321.773438 322.933594 319.410156 322.605469 316.816406 C 318.019531 280.539062 334.171875 238.558594 365.820312 204.523438 C 367.597656 202.613281 367.488281 199.617188 365.574219 197.839844 C 363.671875 196.066406 360.675781 196.167969 358.886719 198.085938 C 325.355469 234.148438 308.28125 278.980469 313.214844 318.003906 C 313.511719 320.394531 315.550781 322.140625 317.90625 322.140625 Z M 317.90625 322.140625 " fill-opacity="1" fill-rule="nonzero"/><g clip-path="url(#id3)"><path fill="#060606" d="M 734.007812 667.117188 C 731.375 667.066406 729.179688 669.003906 729.050781 671.617188 C 728.355469 686.132812 727.207031 696.339844 727.195312 696.4375 C 726.898438 699.03125 728.769531 701.378906 731.367188 701.667969 C 731.546875 701.691406 731.726562 701.699219 731.902344 701.699219 C 734.277344 701.699219 736.328125 699.917969 736.597656 697.503906 C 736.648438 697.078125 737.789062 686.921875 738.503906 672.066406 C 738.636719 669.460938 736.621094 667.246094 734.007812 667.117188 Z M 734.007812 667.117188 " fill-opacity="1" fill-rule="nonzero"/></g><g clip-path="url(#id4)"><path fill="#060606" d="M 794.96875 642.042969 C 792.351562 642.042969 790.238281 644.15625 790.238281 646.773438 L 790.238281 696.96875 C 790.238281 699.585938 792.351562 701.699219 794.96875 701.699219 C 797.585938 701.699219 799.703125 699.585938 799.703125 696.96875 L 799.703125 646.773438 C 799.703125 644.160156 797.585938 642.042969 794.96875 642.042969 Z M 794.96875 642.042969 " fill-opacity="1" fill-rule="nonzero"/></g><path fill="#060606" d="M 763.5625 454.757812 C 751.617188 447.566406 740.371094 443.867188 729.496094 440.289062 C 716.3125 435.953125 703.855469 431.855469 690.148438 421.859375 C 669.984375 407.15625 673.472656 361.292969 674.402344 352.046875 C 705.441406 322.097656 731.96875 291.84375 752.417969 262.769531 C 793.773438 203.964844 805.527344 156.4375 785.507812 128.925781 C 781.738281 123.746094 776.90625 119.453125 771.136719 116 C 770.933594 115.847656 770.730469 115.726562 770.5 115.605469 C 737.113281 96.21875 672.394531 104.976562 590.511719 140.90625 C 538.921875 99.449219 452.054688 104.164062 382.601562 152.601562 C 311.851562 201.949219 277.792969 282.761719 300.601562 345.976562 C 231.023438 419.074219 196.394531 485.386719 204.84375 526.621094 C 204.875 527.101562 204.96875 527.554688 205.140625 528.003906 C 206.640625 534.484375 209.203125 540.339844 212.925781 545.460938 C 224.558594 561.453125 245.640625 569.046875 273.566406 569.042969 C 320.953125 569.039062 388.023438 547.132812 461.917969 507.230469 C 463.894531 523.433594 473.265625 560.300781 517.269531 580.320312 C 545.964844 593.378906 585.398438 583.535156 623.527344 574.015625 C 660.085938 564.898438 694.613281 556.265625 711.597656 570.453125 C 723.332031 580.253906 729.730469 608.859375 729.601562 650.996094 C 729.589844 653.605469 731.703125 655.730469 734.320312 655.742188 C 734.324219 655.742188 734.328125 655.742188 734.332031 655.742188 C 736.941406 655.742188 739.058594 653.636719 739.066406 651.023438 C 739.207031 604.722656 732.011719 575.171875 717.664062 563.1875 C 696.992188 545.921875 660.191406 555.109375 621.234375 564.835938 C 584.679688 573.957031 546.882812 583.398438 521.191406 571.707031 C 476.371094 551.316406 471.398438 512.964844 470.898438 502.316406 C 496.71875 487.976562 523.28125 471.507812 550.082031 453.027344 C 555.347656 470.769531 573.054688 517.949219 614.804688 527.988281 C 637.601562 533.476562 656.378906 531.484375 672.945312 529.726562 C 691.84375 527.714844 708.15625 526.003906 725.226562 536.210938 C 736.074219 542.691406 744.136719 562.691406 748.546875 594.039062 C 748.878906 596.398438 750.902344 598.105469 753.226562 598.105469 C 753.445312 598.105469 753.667969 598.09375 753.894531 598.058594 C 756.484375 597.695312 758.285156 595.300781 757.921875 592.710938 C 752.964844 557.460938 743.859375 536.320312 730.09375 528.085938 C 710.296875 516.25 691.671875 518.222656 671.953125 520.308594 C 655.367188 522.0625 638.222656 523.882812 617.023438 518.78125 C 577.902344 509.378906 561.84375 460.015625 558.324219 447.277344 C 562.929688 444.035156 567.539062 440.761719 572.148438 437.40625 C 590.585938 423.996094 608.304688 410.171875 625.179688 396.117188 C 628.320312 414.414062 637.890625 456.855469 660.8125 472.144531 C 673.511719 480.621094 687.171875 482.113281 700.386719 483.554688 C 717.832031 485.457031 734.300781 487.253906 750.628906 503.625 C 765.480469 518.511719 773.242188 576.054688 771.929688 661.503906 C 771.886719 664.121094 773.980469 666.269531 776.585938 666.3125 C 776.617188 666.3125 776.640625 666.3125 776.664062 666.3125 C 779.242188 666.3125 781.355469 664.238281 781.394531 661.65625 C 782.367188 598.492188 778.976562 518.640625 757.332031 496.941406 C 738.644531 478.210938 718.867188 476.054688 701.417969 474.148438 C 688.777344 472.769531 676.839844 471.46875 666.058594 464.269531 C 643.679688 449.34375 635.316406 400.449219 633.636719 388.960938 C 644.203125 379.949219 654.449219 370.855469 664.246094 361.714844 C 663.503906 380.519531 665.023438 415.253906 684.582031 429.511719 C 699.488281 440.386719 713.25 444.910156 726.546875 449.289062 C 737.40625 452.855469 747.65625 456.230469 758.691406 462.871094 C 783.605469 477.867188 790.25 509.566406 790.25 525.9375 L 790.25 624.035156 C 790.25 626.652344 792.367188 628.765625 794.984375 628.765625 C 797.601562 628.765625 799.714844 626.652344 799.714844 624.035156 L 799.714844 525.9375 C 799.703125 507.574219 792.09375 471.933594 763.5625 454.757812 Z M 388.015625 160.371094 C 424.359375 135.027344 465.566406 122.136719 503.34375 122.136719 C 533.957031 122.136719 562.320312 130.601562 584.003906 147.777344 C 579.125 160.296875 555.195312 211.792969 474.363281 269.371094 C 393.054688 327.277344 325.109375 339.738281 309.175781 341.96875 C 288.375 282.847656 321.046875 207.078125 388.015625 160.371094 Z M 308.269531 351.644531 C 320.625 350.253906 391.777344 339.8125 479.859375 277.082031 C 565.457031 216.109375 588.898438 162.113281 593.289062 150.027344 C 670.625 115.933594 733.046875 106.382812 764.058594 122.832031 C 775.074219 183.347656 682.070312 302.402344 545.957031 401.421875 C 409.878906 500.40625 267.996094 552.246094 213.785156 523.210938 C 207.105469 485.328125 241.847656 421.199219 308.269531 351.644531 Z M 566.570312 429.753906 C 415.53125 539.621094 257.078125 590.058594 220.582031 539.894531 C 219.535156 538.457031 218.636719 536.921875 217.808594 535.328125 C 227.722656 538.886719 239.441406 540.644531 252.726562 540.644531 C 323.597656 540.644531 438.207031 491.5 551.515625 409.070312 C 686.074219 311.1875 776.488281 197.136719 774.363281 130.445312 C 775.617188 131.722656 776.804688 133.054688 777.851562 134.492188 C 795.050781 158.125 782.953125 202.898438 744.671875 257.328125 C 704.859375 313.929688 641.605469 375.167969 566.570312 429.753906 Z M 566.570312 429.753906 " fill-opacity="1" fill-rule="nonzero"/><g clip-path="url(#id5)"><path fill="#060606" d="M 776.292969 677.992188 C 776.242188 677.988281 776.191406 677.988281 776.132812 677.988281 C 773.597656 677.988281 771.496094 680.003906 771.410156 682.5625 C 771.113281 691.398438 770.824219 696.683594 770.824219 696.710938 C 770.679688 699.324219 772.679688 701.554688 775.285156 701.695312 C 775.375 701.699219 775.460938 701.703125 775.550781 701.703125 C 778.046875 701.703125 780.136719 699.75 780.269531 697.234375 C 780.269531 697.234375 780.566406 691.867188 780.867188 682.878906 C 780.953125 680.269531 778.910156 678.082031 776.292969 677.992188 Z M 776.292969 677.992188 " fill-opacity="1" fill-rule="nonzero"/></g><g clip-path="url(#id6)"><path fill="#060606" d="M 755.144531 609.824219 C 752.535156 610.039062 750.59375 612.316406 750.804688 614.921875 C 754.078125 655.539062 751.433594 696.253906 751.40625 696.65625 C 751.234375 699.261719 753.207031 701.515625 755.816406 701.691406 C 755.917969 701.695312 756.027344 701.699219 756.132812 701.699219 C 758.597656 701.699219 760.6875 699.785156 760.851562 697.28125 C 760.878906 696.867188 763.566406 655.484375 760.242188 614.160156 C 760.039062 611.5625 757.828125 609.613281 755.144531 609.824219 Z M 755.144531 609.824219 " fill-opacity="1" fill-rule="nonzero"/></g><path fill="#060606" d="M 281.222656 457.992188 C 282.835938 458.703125 284.535156 459.046875 286.277344 459.046875 C 294.816406 459.046875 304.359375 450.835938 310.117188 437.765625 C 313.167969 430.851562 314.582031 423.636719 314.121094 417.445312 C 313.574219 410.191406 310.527344 404.980469 305.53125 402.785156 C 296.015625 398.585938 283.5625 407.277344 276.636719 423.011719 C 273.585938 429.925781 272.171875 437.140625 272.632812 443.332031 C 273.175781 450.585938 276.222656 455.796875 281.222656 457.992188 Z M 285.289062 426.828125 C 289.835938 416.519531 296.714844 411.207031 300.492188 411.207031 C 300.953125 411.207031 301.363281 411.289062 301.71875 411.445312 C 303.3125 412.144531 304.414062 414.652344 304.679688 418.152344 C 305.027344 422.753906 303.851562 428.507812 301.457031 433.945312 C 296.367188 445.503906 288.320312 450.78125 285.03125 449.332031 C 283.4375 448.632812 282.332031 446.121094 282.066406 442.625 C 281.722656 438.019531 282.894531 432.261719 285.289062 426.828125 Z M 285.289062 426.828125 " fill-opacity="1" fill-rule="nonzero"/><path fill="#060606" d="M 670.554688 176.832031 C 673.734375 176.832031 677.121094 176.5 680.609375 175.796875 C 688.015625 174.308594 694.734375 171.3125 699.527344 167.371094 C 705.152344 162.75 707.652344 157.257812 706.570312 151.910156 C 705.496094 146.5625 701.066406 142.472656 694.097656 140.378906 C 688.148438 138.59375 680.796875 138.433594 673.390625 139.921875 C 656.53125 143.308594 645.371094 153.578125 647.425781 163.804688 C 649.058594 171.914062 658.367188 176.832031 670.554688 176.832031 Z M 675.257812 149.203125 C 677.976562 148.660156 680.707031 148.386719 683.296875 148.386719 C 686.253906 148.386719 689.023438 148.738281 691.378906 149.445312 C 694.738281 150.453125 696.949219 152.078125 697.289062 153.78125 C 697.632812 155.484375 696.222656 157.832031 693.515625 160.0625 C 689.949219 162.996094 684.5625 165.347656 678.738281 166.515625 C 666.347656 169 657.417969 165.46875 656.707031 161.9375 C 656.003906 158.410156 662.875 151.695312 675.257812 149.203125 Z M 675.257812 149.203125 " fill-opacity="1" fill-rule="nonzero"/><path fill="#060606" d="M 494.472656 345.207031 C 498.835938 351.375 504.292969 356.300781 509.839844 359.089844 C 513.152344 360.75 516.339844 361.578125 519.257812 361.578125 C 522.074219 361.578125 524.644531 360.804688 526.828125 359.257812 C 531.28125 356.105469 533.234375 350.398438 532.316406 343.1875 C 531.539062 337.027344 528.707031 330.246094 524.34375 324.074219 C 519.976562 317.910156 514.523438 312.976562 508.96875 310.195312 C 502.472656 306.929688 496.433594 306.871094 491.984375 310.019531 C 487.53125 313.171875 485.574219 318.878906 486.496094 326.09375 C 487.28125 332.25 490.109375 339.039062 494.472656 345.207031 Z M 497.449219 317.742188 C 497.988281 317.359375 498.71875 317.175781 499.585938 317.175781 C 501 317.175781 502.785156 317.671875 504.730469 318.652344 C 508.851562 320.722656 513.1875 324.691406 516.617188 329.539062 C 516.617188 329.539062 516.617188 329.539062 516.617188 329.542969 C 520.054688 334.390625 522.347656 339.792969 522.925781 344.371094 C 523.371094 347.847656 522.785156 350.53125 521.359375 351.535156 C 519.945312 352.542969 517.21875 352.207031 514.089844 350.632812 C 509.96875 348.5625 505.636719 344.597656 502.203125 339.742188 C 498.765625 334.898438 496.464844 329.488281 495.886719 324.910156 C 495.449219 321.425781 496.03125 318.746094 497.449219 317.742188 Z M 497.449219 317.742188 " fill-opacity="1" fill-rule="nonzero"/><g fill="#2bae66" fill-opacity="1"><g transform="translate(117.128906, 1099.839535)"><g><path d="M 75.613281 2.707031 C 123.691406 2.707031 147.839844 -48.527344 147.839844 -100.214844 C 147.839844 -152.128906 123.691406 -203.367188 75.613281 -203.367188 C 27.535156 -203.367188 3.613281 -152.128906 3.613281 -100.214844 C 3.613281 -48.527344 27.535156 2.707031 75.613281 2.707031 Z M 117.820312 -156.417969 C 127.074219 -156.417969 133.847656 -150.773438 133.847656 -139.261719 C 133.847656 -102.246094 63.199219 -44.464844 33.40625 -44.464844 C 24.152344 -44.464844 17.605469 -50.109375 17.605469 -61.394531 C 17.605469 -98.636719 88.027344 -156.417969 117.820312 -156.417969 Z M 117.820312 -156.417969 "/></g></g></g><g fill="#2bae66" fill-opacity="1"><g transform="translate(285.509449, 1099.839535)"><g><path d="M 149.195312 -200.65625 L 96.378906 -200.65625 C 110.597656 -179.441406 116.242188 -158.675781 116.242188 -139.261719 C 116.242188 -78.773438 54.394531 -42.660156 33.855469 -42.660156 C 28.441406 -42.660156 26.40625 -46.269531 26.40625 -52.363281 C 26.40625 -61.394531 32.953125 -72.453125 40.855469 -86.222656 C 53.71875 -107.890625 70.421875 -135.878906 70.421875 -166.574219 C 70.421875 -177.632812 68.390625 -189.144531 63.425781 -200.65625 L 4.515625 -200.65625 C 16.027344 -163.867188 19.410156 -130.6875 19.410156 -102.019531 C 19.410156 -78.546875 16.929688 -59.136719 15.121094 -43.109375 C 13.769531 -32.503906 12.867188 -23.472656 12.867188 -16.476562 C 12.867188 -3.386719 16.929688 3.160156 32.277344 3.160156 C 71.550781 3.160156 99.988281 -40.402344 109.019531 -90.285156 L 113.984375 -90.285156 L 94.796875 0 L 148.96875 0 C 139.039062 -28.890625 134.523438 -62.523438 134.523438 -96.378906 C 134.523438 -134.296875 139.714844 -169.285156 149.195312 -200.65625 Z M 149.195312 -200.65625 "/></g></g></g><g fill="#2bae66" fill-opacity="1"><g transform="translate(457.049913, 1099.839535)"><g><path d="M 36.339844 0 L 102.019531 0 C 83.964844 -34.082031 68.164062 -71.777344 68.164062 -114.433594 C 68.164062 -132.039062 69.96875 -156.644531 88.929688 -156.644531 C 104.503906 -156.644531 124.367188 -140.617188 129.558594 -136.105469 L 129.558594 -200.65625 L 1.128906 -200.65625 L 1.128906 -136.328125 C 12.867188 -143.101562 30.246094 -155.0625 44.011719 -155.0625 C 52.140625 -155.0625 58.683594 -149.195312 58.683594 -139.261719 C 58.683594 -130.460938 53.945312 -120.304688 48.078125 -108.117188 C 39.273438 -89.605469 28.214844 -66.132812 28.214844 -39.5 C 28.214844 -27.085938 30.246094 -14.671875 36.339844 0 Z M 36.339844 0 "/></g></g></g><g fill="#2bae66" fill-opacity="1"><g transform="translate(604.89079, 1099.839535)"><g><path d="M 4.515625 0 L 125.945312 0 L 125.945312 -61.84375 C 102.246094 -49.882812 71.324219 -42.433594 53.042969 -42.433594 C 46.269531 -42.433594 30.472656 -43.5625 30.472656 -54.847656 C 30.472656 -63.425781 38.144531 -76.96875 45.367188 -86.898438 C 60.941406 -86.898438 79 -84.191406 101.34375 -75.839844 L 101.34375 -110.148438 C 99.539062 -110.597656 97.957031 -110.597656 96.152344 -110.597656 C 84.640625 -110.597656 72.90625 -104.277344 62.972656 -99.085938 C 55.523438 -95.25 49.203125 -91.863281 45.367188 -91.863281 C 41.757812 -91.863281 39.5 -95.023438 39.5 -102.925781 C 39.5 -120.304688 46.496094 -157.320312 64.554688 -157.320312 C 85.09375 -157.320312 107.664062 -144.230469 125.945312 -134.75 L 125.945312 -200.65625 L 5.417969 -200.65625 C 15.347656 -171.765625 19.863281 -138.136719 19.863281 -104.054688 C 19.863281 -66.132812 13.992188 -31.375 4.515625 0 Z M 4.515625 0 "/></g></g></g><g fill="#2bae66" fill-opacity="1"><g transform="translate(751.828862, 1099.839535)"><g><path d="M 4.515625 0 L 57.78125 0 C 39.949219 -23.925781 37.242188 -52.363281 37.242188 -81.03125 C 58.460938 -81.03125 67.9375 -60.039062 77.417969 -38.824219 C 86.671875 -18.058594 96.152344 2.707031 119.402344 2.707031 C 124.140625 2.707031 129.332031 2.03125 134.976562 0 L 134.976562 -64.101562 C 130.460938 -63.652344 125.042969 -63.199219 119.402344 -63.199219 C 100.441406 -63.199219 73.355469 -73.355469 73.355469 -90.511719 C 114.433594 -94.574219 135.199219 -120.078125 135.199219 -150.324219 C 135.199219 -194.113281 91.636719 -203.367188 49.65625 -203.367188 C 29.117188 -203.367188 13.089844 -202.011719 5.417969 -200.65625 C 15.347656 -171.539062 19.863281 -138.136719 19.863281 -104.054688 C 19.863281 -66.132812 13.992188 -31.375 4.515625 0 Z M 105.40625 -156.191406 C 111.050781 -156.191406 113.984375 -152.582031 113.984375 -146.488281 C 113.984375 -125.269531 72.90625 -91.863281 55.976562 -91.863281 C 50.332031 -91.863281 47.171875 -95.925781 47.171875 -101.796875 C 47.171875 -123.238281 88.253906 -156.191406 105.40625 -156.191406 Z M 105.40625 -156.191406 "/></g></g></g><g fill="#060606" fill-opacity="1"><g transform="translate(219.786486, 1186.748419)"><g><path d="M 86.507812 -10.328125 L 67.039062 -59.25 L 55.273438 -59.25 L 36.226562 -10.328125 L 16.757812 -59.25 L 5.078125 -59.25 L 28.695312 0 L 43.929688 0 L 61.199219 -44.355469 L 78.890625 0 L 94.210938 0 L 117.234375 -59.25 L 105.46875 -59.25 Z M 86.507812 -10.328125 "/></g></g></g><g fill="#060606" fill-opacity="1"><g transform="translate(357.672902, 1186.748419)"><g><path d="M 51.632812 -59.25 C 25.5625 -59.25 5.078125 -46.214844 5.078125 -29.542969 C 5.078125 -12.949219 25.5625 0 51.632812 0 C 77.789062 0 98.273438 -12.949219 98.273438 -29.542969 C 98.273438 -46.214844 77.789062 -59.25 51.632812 -59.25 Z M 51.632812 -10.15625 C 34.789062 -10.15625 15.914062 -18.539062 15.914062 -29.542969 C 15.914062 -40.628906 34.789062 -49.007812 51.632812 -49.007812 C 68.5625 -49.007812 87.355469 -40.628906 87.355469 -29.542969 C 87.355469 -18.539062 68.5625 -10.15625 51.632812 -10.15625 Z M 51.632812 -10.15625 "/></g></g></g><g fill="#060606" fill-opacity="1"><g transform="translate(476.598932, 1186.748419)"><g><path d="M 86.167969 -40.714844 C 86.167969 -59.167969 59.757812 -59.167969 46.976562 -59.167969 L 5.078125 -59.167969 L 5.078125 0 L 15.914062 0 L 15.914062 -20.316406 L 44.4375 -20.316406 L 70.253906 0 L 87.863281 0 L 61.28125 -20.992188 C 75.84375 -22.347656 86.167969 -26.832031 86.167969 -40.714844 Z M 43.421875 -31.234375 L 15.914062 -31.234375 L 15.914062 -48.246094 L 46.132812 -48.246094 C 53.664062 -48.246094 72.878906 -48.246094 72.878906 -40.714844 C 72.878906 -36.3125 73.640625 -31.234375 43.421875 -31.234375 Z M 43.421875 -31.234375 "/></g></g></g><g fill="#060606" fill-opacity="1"><g transform="translate(585.113677, 1186.748419)"><g><path d="M 15.914062 -59.25 L 5.078125 -59.25 L 5.078125 0 L 78.71875 0 L 78.71875 -10.835938 L 15.914062 -10.835938 Z M 15.914062 -59.25 "/></g></g></g><g fill="#060606" fill-opacity="1"><g transform="translate(684.486792, 1186.748419)"><g><path d="M 35.464844 -59.167969 L 5.078125 -59.167969 L 5.078125 0 L 39.953125 0 C 59.167969 0 86.167969 -9.648438 86.167969 -31.066406 C 86.167969 -51.804688 59.929688 -59.167969 35.464844 -59.167969 Z M 39.953125 -10.917969 L 15.996094 -10.917969 L 15.996094 -48.246094 L 35.464844 -48.246094 C 50.195312 -48.246094 75.25 -44.609375 75.25 -31.066406 C 75.25 -16.84375 52.226562 -10.917969 39.953125 -10.917969 Z M 39.953125 -10.917969 "/></g></g></g><g fill="#060606" fill-opacity="1"><g transform="translate(110.937135, 815.269252)"><g><path d="M 86.507812 -10.328125 L 67.039062 -59.25 L 55.273438 -59.25 L 36.226562 -10.328125 L 16.757812 -59.25 L 5.078125 -59.25 L 28.695312 0 L 43.929688 0 L 61.199219 -44.355469 L 78.890625 0 L 94.210938 0 L 117.234375 -59.25 L 105.46875 -59.25 Z M 86.507812 -10.328125 "/></g></g></g><g fill="#060606" fill-opacity="1"><g transform="translate(248.82355, 815.269252)"><g><path d="M 51.632812 -59.25 C 25.5625 -59.25 5.078125 -46.214844 5.078125 -29.542969 C 5.078125 -12.949219 25.5625 0 51.632812 0 C 77.789062 0 98.273438 -12.949219 98.273438 -29.542969 C 98.273438 -46.214844 77.789062 -59.25 51.632812 -59.25 Z M 51.632812 -10.15625 C 34.789062 -10.15625 15.914062 -18.539062 15.914062 -29.542969 C 15.914062 -40.628906 34.789062 -49.007812 51.632812 -49.007812 C 68.5625 -49.007812 87.355469 -40.628906 87.355469 -29.542969 C 87.355469 -18.539062 68.5625 -10.15625 51.632812 -10.15625 Z M 51.632812 -10.15625 "/></g></g></g><g fill="#060606" fill-opacity="1"><g transform="translate(367.74958, 815.269252)"><g><path d="M 78.128906 -13.289062 L 20.144531 -59.25 L 5.078125 -59.25 L 5.078125 0 L 15.914062 0 L 15.914062 -48.585938 L 77.367188 0 L 89.046875 0 L 89.046875 -59.25 L 78.128906 -59.25 Z M 78.128906 -13.289062 "/></g></g></g><g fill="#060606" fill-opacity="1"><g transform="translate(477.449338, 815.269252)"><g><path d="M 35.464844 -59.167969 L 5.078125 -59.167969 L 5.078125 0 L 39.953125 0 C 59.167969 0 86.167969 -9.648438 86.167969 -31.066406 C 86.167969 -51.804688 59.929688 -59.167969 35.464844 -59.167969 Z M 39.953125 -10.917969 L 15.996094 -10.917969 L 15.996094 -48.246094 L 35.464844 -48.246094 C 50.195312 -48.246094 75.25 -44.609375 75.25 -31.066406 C 75.25 -16.84375 52.226562 -10.917969 39.953125 -10.917969 Z M 39.953125 -10.917969 "/></g></g></g><g fill="#060606" fill-opacity="1"><g transform="translate(584.271182, 815.269252)"><g><path d="M 5.078125 0.0859375 L 86.167969 0.0859375 L 86.167969 -10.835938 L 15.996094 -10.835938 L 15.996094 -27.253906 L 68.984375 -27.253906 L 68.984375 -38.175781 L 15.996094 -38.175781 L 15.996094 -48.164062 L 86.167969 -48.164062 L 86.167969 -59.082031 L 5.078125 -59.082031 Z M 5.078125 0.0859375 "/></g></g></g><g fill="#060606" fill-opacity="1"><g transform="translate(691.093026, 815.269252)"><g><path d="M 86.167969 -40.714844 C 86.167969 -59.167969 59.757812 -59.167969 46.976562 -59.167969 L 5.078125 -59.167969 L 5.078125 0 L 15.914062 0 L 15.914062 -20.316406 L 44.4375 -20.316406 L 70.253906 0 L 87.863281 0 L 61.28125 -20.992188 C 75.84375 -22.347656 86.167969 -26.832031 86.167969 -40.714844 Z M 43.421875 -31.234375 L 15.914062 -31.234375 L 15.914062 -48.246094 L 46.132812 -48.246094 C 53.664062 -48.246094 72.878906 -48.246094 72.878906 -40.714844 C 72.878906 -36.3125 73.640625 -31.234375 43.421875 -31.234375 Z M 43.421875 -31.234375 "/></g></g></g><g fill="#060606" fill-opacity="1"><g transform="translate(799.607772, 815.269252)"><g><path d="M 53.917969 -35.128906 C 52.648438 -35.128906 51.464844 -35.210938 50.363281 -35.210938 C 48.839844 -35.210938 46.894531 -35.210938 44.777344 -35.210938 C 37.160156 -35.128906 21.160156 -35.042969 16.757812 -39.359375 C 16.167969 -39.953125 15.914062 -40.460938 15.914062 -41.308594 C 15.914062 -43.507812 15.914062 -48.164062 49.601562 -48.164062 C 66.445312 -48.164062 71.949219 -44.355469 73.472656 -42.660156 C 74.148438 -41.984375 74.488281 -41.308594 74.570312 -40.882812 L 85.574219 -40.882812 C 85.492188 -43 84.8125 -46.132812 82.191406 -49.261719 C 76.859375 -55.78125 65.9375 -59.082031 49.601562 -59.082031 C 25.222656 -59.082031 5.078125 -57.726562 5.078125 -41.308594 C 5.078125 -37.582031 6.433594 -34.195312 9.058594 -31.65625 C 16.082031 -24.632812 30.050781 -24.207031 44.863281 -24.292969 C 46.894531 -24.292969 48.671875 -24.378906 50.023438 -24.292969 C 51.210938 -24.292969 52.480469 -24.292969 53.835938 -24.292969 C 67.292969 -24.125 75.164062 -23.023438 75.164062 -17.605469 C 75.164062 -14.558594 70.761719 -10.835938 50.109375 -10.835938 C 36.226562 -10.835938 28.441406 -11.765625 22.9375 -14.136719 C 18.113281 -16.167969 16.84375 -17.269531 16.503906 -18.960938 L 5.585938 -18.960938 C 6.265625 -10.917969 11.003906 -7.363281 18.707031 -4.0625 C 25.648438 -1.101562 34.449219 0.0859375 50.109375 0.0859375 C 60.859375 0.0859375 86.082031 0.0859375 86.082031 -17.605469 C 86.082031 -34.957031 65.09375 -35.042969 53.917969 -35.128906 Z M 53.917969 -35.128906 "/></g></g></g><g fill="#060606" fill-opacity="1"><g transform="translate(363.424425, 875.422583)"><g><path d="M 25.816406 -29.625 C 12.78125 -29.625 2.539062 -23.109375 2.539062 -14.769531 C 2.539062 -6.476562 12.78125 0 25.816406 0 C 38.894531 0 49.136719 -6.476562 49.136719 -14.769531 C 49.136719 -23.109375 38.894531 -29.625 25.816406 -29.625 Z M 25.816406 -5.078125 C 17.394531 -5.078125 7.957031 -9.269531 7.957031 -14.769531 C 7.957031 -20.316406 17.394531 -24.503906 25.816406 -24.503906 C 34.28125 -24.503906 43.675781 -20.316406 43.675781 -14.769531 C 43.675781 -9.269531 34.28125 -5.078125 25.816406 -5.078125 Z M 25.816406 -5.078125 "/></g></g></g><g fill="#060606" fill-opacity="1"><g transform="translate(422.880116, 875.422583)"><g><path d="M 2.539062 0 L 7.957031 0 L 7.957031 -13.671875 L 34.449219 -13.671875 L 34.449219 -19.128906 L 7.957031 -19.128906 L 7.957031 -24.167969 L 43 -24.167969 L 43 -29.625 L 2.539062 -29.625 Z M 2.539062 0 "/></g></g></g><g fill="#060606" fill-opacity="1"><g transform="translate(476.199943, 875.422583)"><g/></g></g><g fill="#060606" fill-opacity="1"><g transform="translate(495.835977, 875.422583)"><g><path d="M 2.539062 -24.167969 L 21.160156 -24.167969 L 21.160156 0 L 26.621094 0 L 26.621094 -24.167969 L 45.285156 -24.167969 L 45.285156 -29.625 L 2.539062 -29.625 Z M 2.539062 -24.167969 "/></g></g></g><g fill="#060606" fill-opacity="1"><g transform="translate(551.398572, 875.422583)"><g><path d="M 37.921875 -18.917969 L 7.957031 -18.917969 L 7.957031 -29.625 L 2.539062 -29.625 L 2.539062 0 L 7.957031 0 L 7.957031 -13.457031 L 37.921875 -13.457031 L 37.921875 0 L 43.378906 0 L 43.378906 -29.625 L 37.921875 -29.625 Z M 37.921875 -18.917969 "/></g></g></g><g fill="#060606" fill-opacity="1"><g transform="translate(605.099246, 875.422583)"><g><path d="M 2.539062 0.0429688 L 43.085938 0.0429688 L 43.085938 -5.417969 L 8 -5.417969 L 8 -13.628906 L 34.492188 -13.628906 L 34.492188 -19.085938 L 8 -19.085938 L 8 -24.082031 L 43.085938 -24.082031 L 43.085938 -29.542969 L 2.539062 -29.542969 Z M 2.539062 0.0429688 "/></g></g></g></svg>