<svg xmlns="http://www.w3.org/2000/svg" xmlns:xlink="http://www.w3.org/1999/xlink" width="500" zoomAndPan="magnify" viewBox="0 0 375 374.999991" height="500" preserveAspectRatio="xMidYMid meet" version="1.0"><defs><clipPath id="4a4dc91104"><path d="M 33.75 0 L 341.25 0 L 341.25 375 L 33.75 375 Z M 33.75 0 " clip-rule="nonzero"/></clipPath></defs><g clip-path="url(#4a4dc91104)"><path fill="#2bae66" d="M 33.75 153.867188 C 33.75 62.578125 91.40625 0.117188 187.5 0.117188 C 283.59375 0.117188 341.25 62.578125 341.25 153.867188 C 341.25 221.132812 326.835938 249.960938 278.789062 307.617188 C 254.765625 336.445312 221.132812 374.882812 187.5 374.882812 C 153.867188 374.882812 120.234375 336.445312 96.210938 307.617188 C 48.164062 249.960938 33.75 221.132812 33.75 153.867188 Z M 72.1875 211.523438 C 72.1875 249.960938 120.234375 288.398438 153.867188 288.398438 C 165.878906 288.398438 173.085938 285.996094 173.085938 273.984375 C 173.085938 245.15625 122.636719 180.292969 96.210938 180.292969 C 79.394531 180.292969 72.1875 194.707031 72.1875 211.523438 Z M 156.269531 322.03125 C 161.074219 331.640625 173.085938 336.445312 187.5 336.445312 C 201.914062 336.445312 213.925781 331.640625 218.730469 322.03125 Z M 201.914062 273.984375 C 201.914062 285.996094 209.121094 288.398438 221.132812 288.398438 C 254.765625 288.398438 302.8125 249.960938 302.8125 211.523438 C 302.8125 194.707031 295.605469 180.292969 278.789062 180.292969 C 252.363281 180.292969 201.914062 245.15625 201.914062 273.984375 Z M 201.914062 273.984375 " fill-opacity="1" fill-rule="nonzero"/></g></svg>