<svg xmlns="http://www.w3.org/2000/svg" xmlns:xlink="http://www.w3.org/1999/xlink" width="500" zoomAndPan="magnify" viewBox="0 0 375 374.999991" height="500" preserveAspectRatio="xMidYMid meet" version="1.0"><defs><clipPath id="fcd37252b4"><path d="M 1.691406 10.476562 L 374.375 10.476562 L 374.375 364.523438 L 1.691406 364.523438 Z M 1.691406 10.476562 " clip-rule="nonzero"/></clipPath></defs><g clip-path="url(#fcd37252b4)"><path fill="#2bae66" d="M 193.640625 13.941406 L 246.230469 120.417969 C 247.03125 122.28125 248.902344 123.613281 251.035156 123.878906 L 368.769531 140.917969 C 373.839844 141.714844 375.976562 148.105469 372.238281 151.5625 L 287.078125 234.351562 C 285.476562 235.679688 284.941406 237.808594 285.207031 239.941406 L 305.230469 357.0625 C 306.03125 362.121094 300.691406 366.113281 296.152344 363.71875 L 190.703125 308.351562 C 188.832031 307.285156 186.699219 307.285156 184.828125 308.351562 L 79.378906 363.71875 C 74.839844 366.113281 69.5 362.121094 70.300781 357.0625 L 90.324219 239.941406 C 90.589844 237.808594 90.054688 235.945312 88.453125 234.351562 L 3.558594 151.5625 C -0.179688 147.835938 1.957031 141.714844 7.03125 140.917969 L 124.761719 123.878906 C 126.898438 123.613281 128.5 122.28125 129.566406 120.417969 L 182.160156 13.941406 C 184.5625 9.417969 191.234375 9.417969 193.640625 13.941406 Z M 193.640625 13.941406 " fill-opacity="1" fill-rule="nonzero"/></g></svg>